<?xml version="1.0" encoding="UTF-8" standalone="no"?>
<!-- Created with Inkscape (http://www.inkscape.org/) -->

<svg
   width="160.62375mm"
   height="164.83501mm"
   viewBox="0 0 160.62375 164.835"
   version="1.1"
   id="svg1"
   sodipodi:docname="asterism chick.svg"
   inkscape:version="1.4 (e7c3feb100, 2024-10-09)"
   inkscape:export-filename="asterism chick.png"
   inkscape:export-xdpi="96"
   inkscape:export-ydpi="96"
   xmlns:inkscape="http://www.inkscape.org/namespaces/inkscape"
   xmlns:sodipodi="http://sodipodi.sourceforge.net/DTD/sodipodi-0.dtd"
   xmlns="http://www.w3.org/2000/svg"
   xmlns:svg="http://www.w3.org/2000/svg">
  <sodipodi:namedview
     id="namedview1"
     pagecolor="#ffffff"
     bordercolor="#000000"
     borderopacity="0.25"
     inkscape:showpageshadow="2"
     inkscape:pageopacity="0.0"
     inkscape:pagecheckerboard="0"
     inkscape:deskcolor="#d1d1d1"
     inkscape:document-units="mm"
     inkscape:zoom="0.71268238"
     inkscape:cx="296.76614"
     inkscape:cy="343.77165"
     inkscape:window-width="1920"
     inkscape:window-height="1011"
     inkscape:window-x="0"
     inkscape:window-y="0"
     inkscape:window-maximized="1"
     inkscape:current-layer="layer1"
     inkscape:export-bgcolor="#ffffffff" />
  <defs
     id="defs1" />
  <g
     inkscape:label="Layer 1"
     inkscape:groupmode="layer"
     id="layer1"
     transform="translate(-26.35875,-57.54375)">
    <g
       id="g4298"
       transform="matrix(0.52720766,0,0,0.52720766,74.783983,121.00861)">
      <g
         transform="translate(273.86246,-14.686631)"
         id="g4291">
        <path
           id="path4264"
           style="fill:none;fill-rule:evenodd;stroke:#000000;stroke-width:5;stroke-linecap:butt;stroke-linejoin:miter;stroke-miterlimit:4;stroke-dasharray:none;stroke-opacity:1"
           d="m -266.95111,153.63058 c 10.36704,15.55055 10.36704,15.55055 10.36704,15.55055 m -23.32583,-5.18352 c 32.82894,8.6392 32.82894,8.6392 32.82894,8.6392 m 3.45568,-19.00623 c -25.05367,28.50934 -25.05367,28.50934 -25.05367,28.50934"
           inkscape:connector-curvature="0" />
        <path
           inkscape:connector-curvature="0"
           id="path4288"
           style="fill:none;fill-rule:evenodd;stroke:#000000;stroke-width:5;stroke-linecap:butt;stroke-linejoin:miter;stroke-miterlimit:4;stroke-dasharray:none;stroke-opacity:1"
           d="m -177.10348,186.45952 c 5.18351,-19.00623 5.18351,-19.00623 5.18351,-19.00623 v 0 m -18.14231,0 c 19.00623,2.59176 18.14231,1.72784 18.14231,1.72784 m -10.63919,-17.27839 c 11.23095,17.27839 11.23095,18.14231 11.23095,18.14231 m -23.05366,12.09487 c 34.55677,-18.1423 34.55677,-18.1423 34.55677,-18.1423" />
      </g>
      <rect
         inkscape:transform-center-y="-3.8764657"
         inkscape:transform-center-x="4.8552374"
         transform="matrix(0.81368488,-0.58130622,0.74615185,0.6657758,0,0)"
         y="-37.17551"
         x="-49.185467"
         height="21.695112"
         width="26.680264"
         id="rect4196"
         style="opacity:1;fill:#ffff00;fill-opacity:1;fill-rule:evenodd;stroke:#000000;stroke-width:4.34804;stroke-miterlimit:4;stroke-dasharray:none;stroke-opacity:1" />
      <path
         inkscape:connector-curvature="0"
         id="path4170"
         d="m 55.291218,-85.6747 a 107.12602,107.98993 0 0 0 -107.12695,107.990236 107.12602,107.98993 0 0 0 0.39062,8.638672 h -0.39062 A 120.94871,119.22088 0 0 0 68.925988,144.99132 120.94871,119.22088 0 0 0 189.61153,30.954208 h -27.625 A 107.12602,107.98993 0 0 0 162.41622,22.315536 107.12602,107.98993 0 0 0 55.291218,-85.6747 Z"
         style="opacity:1;fill:#ffff00;fill-opacity:1;fill-rule:evenodd;stroke:#000000;stroke-width:4;stroke-miterlimit:4;stroke-dasharray:none;stroke-opacity:1" />
      <circle
         r="13.390751"
         cy="-20.449184"
         cx="5.6154814"
         id="path4192"
         style="opacity:1;fill:#000000;fill-opacity:1;fill-rule:evenodd;stroke:none;stroke-opacity:1" />
      <ellipse
         ry="15.11859"
         rx="21.597986"
         cy="-1.4429547"
         cx="79.480576"
         id="path4194"
         style="opacity:1;fill:#f89694;fill-opacity:1;fill-rule:evenodd;stroke:none;stroke-opacity:1" />
      <path
         sodipodi:nodetypes="ccc"
         inkscape:connector-curvature="0"
         id="path4211"
         d="m 73.45087,60.364601 c 16.213301,35.434127 56.21802,29.570637 69.11355,5.18352 v 0"
         style="fill:none;fill-rule:evenodd;stroke:#000000;stroke-width:5;stroke-linecap:butt;stroke-linejoin:miter;stroke-miterlimit:4;stroke-dasharray:none;stroke-opacity:1" />
    </g>
    <path
       fill="#000000"
       d="m 87.658832,138.40731 v 1.18767 l 0.488221,7.74843 -6.466656,-4.29667 -1.028313,-0.59355 -1.413861,2.44857 1.027777,0.59357 6.954876,3.45124 -6.954876,3.4523 -1.027777,0.59357 1.413861,2.44967 1.027777,-0.59357 6.467192,-4.29774 -0.488221,7.74897 v 1.18713 h 2.827723 v -1.18713 l -0.488222,-7.74897 6.467189,4.29774 1.027781,0.59357 1.41386,-2.44967 -1.027778,-0.59357 -6.95434,-3.4523 6.95434,-3.45124 1.027778,-0.59357 -1.41386,-2.44857 -1.027781,0.59355 -6.467189,4.29667 0.488222,-7.74843 v -1.18767 z m -10.218417,17.6984 v 1.18715 l 0.488219,7.7479 -6.466653,-4.29667 -1.028314,-0.59357 -1.413861,2.44967 1.028313,0.59357 6.95434,3.45123 -6.95434,3.45231 -1.028313,0.59354 1.413861,2.44968 1.028314,-0.5941 6.466653,-4.2972 -0.488219,7.74843 v 1.18767 h 2.828794 v -1.18767 l -0.488221,-7.74843 6.466122,4.2972 1.028845,0.5941 1.413859,-2.44968 -1.028845,-0.59354 -6.95434,-3.45231 6.95434,-3.45123 1.028845,-0.59357 -1.413859,-2.44967 -1.028845,0.59357 -6.466122,4.29667 0.488221,-7.7479 v -1.18715 z m 20.436832,0 v 1.18715 l 0.487686,7.74897 -6.466657,-4.29774 -1.028846,-0.59357 -1.413858,2.44967 1.028845,0.59357 6.953271,3.45123 -6.953271,3.45231 -1.028845,0.59354 1.413858,2.44968 1.028846,-0.5941 6.466657,-4.2972 -0.487686,7.74843 v 1.18767 h 2.827723 v -1.18767 l -0.48822,-7.74843 6.46666,4.2972 1.0283,0.5941 1.41387,-2.44968 -1.0283,-0.59354 -6.95382,-3.45231 6.95382,-3.45123 1.0283,-0.59357 -1.41387,-2.44967 -1.0283,0.59357 -6.46666,4.29667 0.48822,-7.7479 v -1.18715 z"
       id="path1"
       style="stroke-width:0.534742" />
  </g>
</svg>
